<mxfile host="app.diagrams.net" modified="2021-11-22T15:05:24.357Z" agent="5.0 (Macintosh; Intel Mac OS X 10_15_7) AppleWebKit/537.36 (KHTML, like Gecko) Chrome/95.0.4638.69 Safari/537.36" etag="zMSW3G8G6feSyidOK2as" version="15.7.0" type="github">
  <diagram id="hT8lMRMjFEYxF5fnVMln" name="第 1 页">
    <mxGraphModel dx="972" dy="592" grid="1" gridSize="10" guides="1" tooltips="1" connect="1" arrows="1" fold="1" page="1" pageScale="1" pageWidth="827" pageHeight="1169" math="0" shadow="0">
      <root>
        <mxCell id="0" />
        <mxCell id="1" parent="0" />
        <mxCell id="OumYqxK1-FArEY2iDDvo-2" value="&lt;font style=&quot;font-size: 25px&quot;&gt;zookeeper&lt;/font&gt;" style="rounded=0;whiteSpace=wrap;html=1;fontSize=15;fillColor=#f8cecc;strokeColor=#b85450;" vertex="1" parent="1">
          <mxGeometry x="310" y="210" width="170" height="70" as="geometry" />
        </mxCell>
        <mxCell id="OumYqxK1-FArEY2iDDvo-3" value="codis" style="ellipse;whiteSpace=wrap;html=1;aspect=fixed;fontSize=25;fillColor=#d5e8d4;strokeColor=#82b366;" vertex="1" parent="1">
          <mxGeometry x="210" y="360" width="80" height="80" as="geometry" />
        </mxCell>
        <mxCell id="OumYqxK1-FArEY2iDDvo-4" value="codis" style="ellipse;whiteSpace=wrap;html=1;aspect=fixed;fontSize=25;fillColor=#d5e8d4;strokeColor=#82b366;" vertex="1" parent="1">
          <mxGeometry x="360" y="360" width="80" height="80" as="geometry" />
        </mxCell>
        <mxCell id="OumYqxK1-FArEY2iDDvo-5" value="codis" style="ellipse;whiteSpace=wrap;html=1;aspect=fixed;fontSize=25;fillColor=#d5e8d4;strokeColor=#82b366;" vertex="1" parent="1">
          <mxGeometry x="510" y="360" width="80" height="80" as="geometry" />
        </mxCell>
        <mxCell id="OumYqxK1-FArEY2iDDvo-6" value="" style="shape=curlyBracket;whiteSpace=wrap;html=1;rounded=1;flipH=1;fontSize=25;rotation=-90;" vertex="1" parent="1">
          <mxGeometry x="385" y="165" width="30" height="320" as="geometry" />
        </mxCell>
        <mxCell id="OumYqxK1-FArEY2iDDvo-7" value="" style="sketch=0;aspect=fixed;html=1;points=[];align=center;image;fontSize=12;image=img/lib/mscae/Cache_Redis_Product.svg;" vertex="1" parent="1">
          <mxGeometry x="160.5" y="543" width="50" height="42" as="geometry" />
        </mxCell>
        <mxCell id="OumYqxK1-FArEY2iDDvo-8" value="" style="sketch=0;aspect=fixed;html=1;points=[];align=center;image;fontSize=12;image=img/lib/mscae/Cache_Redis_Product.svg;" vertex="1" parent="1">
          <mxGeometry x="240.5" y="543" width="50" height="42" as="geometry" />
        </mxCell>
        <mxCell id="OumYqxK1-FArEY2iDDvo-9" value="" style="sketch=0;aspect=fixed;html=1;points=[];align=center;image;fontSize=12;image=img/lib/mscae/Cache_Redis_Product.svg;" vertex="1" parent="1">
          <mxGeometry x="330.5" y="543" width="50" height="42" as="geometry" />
        </mxCell>
        <mxCell id="OumYqxK1-FArEY2iDDvo-10" value="" style="sketch=0;aspect=fixed;html=1;points=[];align=center;image;fontSize=12;image=img/lib/mscae/Cache_Redis_Product.svg;" vertex="1" parent="1">
          <mxGeometry x="424.5" y="543" width="50" height="42" as="geometry" />
        </mxCell>
        <mxCell id="OumYqxK1-FArEY2iDDvo-11" value="" style="sketch=0;aspect=fixed;html=1;points=[];align=center;image;fontSize=12;image=img/lib/mscae/Cache_Redis_Product.svg;" vertex="1" parent="1">
          <mxGeometry x="504.5" y="543" width="50" height="42" as="geometry" />
        </mxCell>
        <mxCell id="OumYqxK1-FArEY2iDDvo-12" value="" style="sketch=0;aspect=fixed;html=1;points=[];align=center;image;fontSize=12;image=img/lib/mscae/Cache_Redis_Product.svg;" vertex="1" parent="1">
          <mxGeometry x="594.5" y="543" width="50" height="42" as="geometry" />
        </mxCell>
        <mxCell id="OumYqxK1-FArEY2iDDvo-13" value="" style="shape=curlyBracket;whiteSpace=wrap;html=1;rounded=1;fontSize=25;rotation=-90;" vertex="1" parent="1">
          <mxGeometry x="386.25" y="328.75" width="32.5" height="315" as="geometry" />
        </mxCell>
      </root>
    </mxGraphModel>
  </diagram>
</mxfile>
